<svg width="500" height="500" viewBox="0 0 500 500" fill="none" xmlns="http://www.w3.org/2000/svg">
<path d="M51.302 207.646L102.272 237.076C104.102 238.126 106.132 238.656 108.172 238.656C110.212 238.656 112.252 238.126 114.072 237.076L165.042 207.646C165.122 207.606 165.172 207.536 165.242 207.486C166.022 207.006 166.752 206.466 167.392 205.826C167.492 205.726 167.572 205.616 167.672 205.516C168.242 204.916 168.752 204.256 169.182 203.546C169.252 203.426 169.332 203.326 169.402 203.206C169.842 202.436 170.172 201.606 170.432 200.736C170.482 200.546 170.532 200.366 170.572 200.176C170.792 199.286 170.942 198.366 170.942 197.416V167.986C170.942 156.626 177.052 146.036 186.902 140.356C196.752 134.676 208.962 134.676 218.812 140.356L244.302 155.066C245.122 155.546 245.992 155.866 246.872 156.126C247.062 156.186 247.242 156.236 247.432 156.286C248.302 156.496 249.192 156.626 250.072 156.636C250.112 156.636 250.162 156.656 250.202 156.656C250.302 156.656 250.392 156.616 250.492 156.616C251.322 156.596 252.142 156.486 252.942 156.296C253.082 156.266 253.222 156.246 253.352 156.206C254.222 155.966 255.062 155.606 255.862 155.166C255.942 155.126 256.022 155.106 256.102 155.066L307.072 125.636C310.722 123.526 312.972 119.626 312.972 115.416V56.5563C312.972 52.3363 310.722 48.4463 307.072 46.3363L256.102 16.9063C252.452 14.7963 247.952 14.7963 244.292 16.9063L193.322 46.3363C193.242 46.3763 193.192 46.4463 193.122 46.4963C192.342 46.9763 191.612 47.5163 190.972 48.1563C190.872 48.2563 190.792 48.3663 190.692 48.4663C190.122 49.0663 189.612 49.7263 189.182 50.4363C189.112 50.5563 189.032 50.6563 188.962 50.7763C188.522 51.5463 188.192 52.3763 187.932 53.2463C187.882 53.4363 187.832 53.6163 187.792 53.8063C187.572 54.6963 187.422 55.6163 187.422 56.5663V85.9963C187.422 97.3563 181.312 107.946 171.472 113.626C161.632 119.306 149.402 119.306 139.562 113.626L114.072 98.9163C113.252 98.4363 112.382 98.1163 111.492 97.8563C111.302 97.7963 111.122 97.7463 110.942 97.6963C110.062 97.4863 109.182 97.3563 108.292 97.3463C108.162 97.3463 108.032 97.3663 107.892 97.3663C107.062 97.3863 106.232 97.4963 105.422 97.6863C105.292 97.7163 105.152 97.7363 105.022 97.7763C104.152 98.0163 103.312 98.3763 102.512 98.8163C102.432 98.8563 102.352 98.8763 102.272 98.9163L51.302 128.346C47.652 130.456 45.402 134.356 45.402 138.566V197.426C45.402 201.646 47.652 205.536 51.302 207.646Z" fill="#3969CA"/>
<path d="M454.596 361.11L454.598 302.254C454.592 302.165 454.565 302.077 454.564 301.996C454.545 301.083 454.429 300.181 454.201 299.307C454.166 299.166 454.118 299.044 454.074 298.907C453.834 298.111 453.514 297.337 453.116 296.608C453.051 296.496 453.004 296.373 452.939 296.26C452.494 295.49 451.936 294.784 451.306 294.132C451.181 293.996 451.039 293.87 450.906 293.739C450.241 293.107 449.515 292.51 448.689 292.04L423.196 277.325C413.357 271.643 407.247 261.06 407.246 249.699C407.245 238.337 413.356 227.742 423.195 222.062L448.682 207.347C449.504 206.872 450.226 206.282 450.887 205.646C451.026 205.508 451.162 205.383 451.302 205.245C451.922 204.599 452.47 203.889 452.926 203.118C452.995 202.998 453.041 202.878 453.11 202.758C453.51 202.03 453.827 201.259 454.061 200.465C454.098 200.328 454.153 200.204 454.19 200.067C454.41 199.19 454.527 198.291 454.553 197.375C454.552 197.295 454.583 197.208 454.591 197.122L454.593 138.266C454.596 134.05 452.346 130.153 448.688 128.038L397.716 98.6121C394.064 96.5061 389.561 96.5075 385.915 98.6125L334.941 128.042C331.286 130.152 329.043 134.046 329.04 138.262L329.038 197.118C329.043 197.207 329.071 197.295 329.077 197.385C329.095 198.298 329.207 199.191 329.435 200.065C329.47 200.206 329.528 200.346 329.572 200.482C329.807 201.27 330.117 202.026 330.509 202.747C330.559 202.833 330.575 202.94 330.625 203.026C330.645 203.061 330.687 203.094 330.707 203.129C331.147 203.891 331.705 204.597 332.322 205.245C332.451 205.39 332.593 205.516 332.74 205.65C333.405 206.282 334.126 206.871 334.943 207.346L360.427 222.066C370.266 227.748 376.376 238.33 376.382 249.701C376.383 261.063 370.267 271.649 360.429 277.329L334.942 292.044C334.119 292.519 333.397 293.109 332.737 293.744C332.597 293.883 332.461 294.007 332.322 294.146C331.702 294.792 331.153 295.502 330.698 296.273C330.629 296.393 330.582 296.513 330.513 296.633C330.113 297.361 329.797 298.132 329.562 298.926C329.526 299.062 329.47 299.187 329.434 299.323C329.213 300.201 329.097 301.1 329.071 302.015C329.071 302.096 329.041 302.183 329.033 302.268L329.03 361.125C329.036 363.235 329.592 365.258 330.612 367.024C331.632 368.791 333.111 370.293 334.93 371.344L385.902 400.77C389.555 402.876 394.057 402.875 397.703 400.77L448.678 371.34C452.332 369.23 454.576 365.336 454.578 361.12L454.596 361.11Z" fill="#21C19A"/>
<path d="M307.092 374.346L256.122 344.916C256.042 344.876 255.952 344.856 255.882 344.816C255.082 344.376 254.242 344.026 253.372 343.786C253.232 343.746 253.102 343.726 252.962 343.696C252.152 343.506 251.322 343.396 250.492 343.376C250.362 343.376 250.232 343.356 250.102 343.356C249.212 343.356 248.322 343.486 247.442 343.706C247.262 343.746 247.082 343.806 246.902 343.856C246.022 344.116 245.142 344.446 244.322 344.926L218.832 359.646C208.992 365.326 196.772 365.326 186.932 359.646C177.092 353.966 170.972 343.376 170.972 332.016V302.586C170.972 301.636 170.822 300.716 170.602 299.826C170.552 299.636 170.512 299.456 170.462 299.266C170.212 298.406 169.872 297.576 169.432 296.796C169.362 296.676 169.282 296.576 169.212 296.456C168.782 295.746 168.272 295.086 167.702 294.486C167.602 294.386 167.522 294.276 167.422 294.176C166.772 293.546 166.052 292.996 165.272 292.516C165.202 292.476 165.142 292.406 165.072 292.356L114.102 262.926C110.452 260.816 105.952 260.816 102.292 262.926L51.3221 292.356C47.6721 294.466 45.4221 298.366 45.4221 302.576V361.436C45.4221 365.656 47.6721 369.546 51.3221 371.656L102.292 401.086C102.372 401.126 102.462 401.146 102.542 401.186C103.342 401.626 104.172 401.976 105.042 402.216C105.182 402.256 105.332 402.276 105.472 402.306C106.272 402.496 107.082 402.606 107.902 402.626C108.002 402.626 108.102 402.666 108.202 402.666C108.242 402.666 108.292 402.646 108.332 402.646C109.212 402.646 110.102 402.516 110.972 402.306C111.162 402.266 111.342 402.206 111.532 402.146C112.412 401.886 113.282 401.556 114.102 401.086L139.592 386.376C149.432 380.696 161.652 380.696 171.502 386.376C181.342 392.056 187.452 402.646 187.452 414.006V443.436C187.452 444.386 187.602 445.306 187.822 446.196C187.872 446.386 187.912 446.566 187.962 446.756C188.212 447.616 188.552 448.446 188.992 449.226C189.062 449.346 189.142 449.446 189.212 449.566C189.642 450.276 190.152 450.936 190.722 451.536C190.822 451.636 190.902 451.746 191.002 451.846C191.652 452.476 192.372 453.026 193.152 453.506C193.222 453.546 193.282 453.616 193.352 453.666L244.322 483.096C246.152 484.146 248.182 484.676 250.222 484.676C252.262 484.676 254.302 484.146 256.122 483.096L307.092 453.666C310.742 451.556 312.992 447.656 312.992 443.446V384.586C312.992 380.366 310.742 376.476 307.092 374.366V374.346Z" fill="#0294DE"/>
<path d="M249.402 157.324C199.677 157.324 159.402 198.618 159.402 249.601C159.402 290.433 185.165 324.921 220.94 337.148C225.44 337.956 227.127 335.187 227.127 332.764C227.127 330.573 227.015 323.306 227.015 315.579C204.402 319.846 198.552 309.926 196.752 304.736C195.74 302.082 191.352 293.893 187.527 291.701C184.377 289.972 179.877 285.703 187.415 285.589C194.502 285.472 199.565 292.279 201.252 295.047C209.352 309.003 222.29 305.081 227.465 302.66C228.252 296.662 230.615 292.624 233.202 290.317C213.177 288.01 192.252 280.052 192.252 244.756C192.252 234.72 195.74 226.415 201.477 219.956C200.577 217.649 197.427 208.191 202.377 195.503C202.377 195.503 209.915 193.081 227.127 204.961C234.327 202.885 241.977 201.847 249.627 201.847C257.277 201.847 264.927 202.885 272.127 204.961C289.34 192.965 296.877 195.503 296.877 195.503C301.827 208.191 298.677 217.649 297.777 219.956C303.515 226.415 307.002 234.606 307.002 244.756C307.002 280.167 285.965 288.01 265.94 290.317C269.202 293.201 272.015 298.738 272.015 307.388C272.015 319.731 271.902 329.651 271.902 332.764C271.902 335.187 273.59 338.07 278.09 337.148C313.64 324.921 339.402 290.317 339.402 249.601C339.402 198.618 299.127 157.324 249.402 157.324Z" fill="black"/>
</svg>
